<svg xmlns="http://www.w3.org/2000/svg" viewBox="0 0 357.18 29.72"><defs><style>.cls-1,.cls-2{fill:none;stroke-linecap:round;stroke-linejoin:round;stroke-width:1.2px;}.cls-1{stroke:#231f20;}.cls-2{stroke:#faa61a;}</style></defs><g id="Layer_2" data-name="Layer 2"><g id="Layer_2-2" data-name="Layer 2"><path class="cls-1" d="M4,5H8.05s2.37,0,3.15-1.41L12.41,1.8a2.7,2.7,0,0,1,2.25-1H25.19A3.43,3.43,0,0,1,28,2.37l1,1.22A3.22,3.22,0,0,0,31.67,5H36s3.45.1,3.46,3.43V25.8a3.2,3.2,0,0,1-3.34,3.09H4.26S.8,29,.6,26V8.26A3.15,3.15,0,0,1,4,5Z"/><circle class="cls-1" cx="20.31" cy="15.85" r="8.86" transform="translate(-0.39 0.51) rotate(-1.43)"/><line class="cls-1" x1="32.89" y1="8.54" x2="35.46" y2="8.54"/><path class="cls-1" d="M96.23,15.84a4.62,4.62,0,0,1-4.62,4.62h0A4.62,4.62,0,0,1,87,15.84V5.22A4.62,4.62,0,0,1,91.61.6h0a4.62,4.62,0,0,1,4.62,4.62Z"/><path class="cls-1" d="M99.87,12.67v4a8.25,8.25,0,0,1-8.26,8.25h0a8.25,8.25,0,0,1-8.25-8.25V12.58"/><line class="cls-1" x1="91.61" y1="24.9" x2="91.61" y2="29.12"/><rect class="cls-1" x="144.78" y="0.65" width="17.01" height="28.33" rx="1.4"/><path class="cls-1" d="M159.78,20.38a6.49,6.49,0,1,1-6.49-6.49A6.49,6.49,0,0,1,159.78,20.38Z"/><path class="cls-1" d="M156.77,20.38a3.48,3.48,0,1,1-3.48-3.47A3.48,3.48,0,0,1,156.77,20.38Z"/><path class="cls-1" d="M157.31,7.19a4,4,0,1,1-4-4A4,4,0,0,1,157.31,7.19Z"/><circle class="cls-1" cx="153.29" cy="7.19" r="1.59"/><rect class="cls-1" x="313.65" y="0.99" width="24.09" height="27.73" rx="3.1"/><path class="cls-1" d="M337.91,8.92l4.53-1.86a1.46,1.46,0,0,1,2.13,1.46V21.45a1.45,1.45,0,0,1-2.13,1.45L337.91,21"/><line class="cls-1" x1="345.99" y1="5.04" x2="356.53" y2="0.64"/><line class="cls-1" x1="356.58" y1="29.04" x2="345.99" y2="24.65"/><polygon class="cls-1" points="321.04 8.96 331.25 14.85 321.04 20.75 321.04 8.96"/><rect class="cls-1" x="213.06" y="0.87" width="30.38" height="20.22" rx="2.24"/><line class="cls-1" x1="223.29" y1="23.55" x2="233.28" y2="23.55"/><polygon class="cls-1" points="216.11 25.96 240.65 25.96 243.45 28.82 213.12 28.82 216.11 25.96"/><rect class="cls-1" x="247.46" y="0.83" width="14.56" height="27.99" rx="0.79"/><line class="cls-1" x1="247.83" y1="7.45" x2="262.02" y2="7.45"/><line class="cls-1" x1="247.83" y1="12.86" x2="262.02" y2="12.86"/><line class="cls-1" x1="247.83" y1="18.27" x2="262.02" y2="18.27"/><line class="cls-2" x1="61.88" y1="7.98" x2="61.88" y2="19.22"/><line class="cls-2" x1="56.26" y1="13.6" x2="67.5" y2="13.6"/><line class="cls-2" x1="121.35" y1="7.98" x2="121.35" y2="19.22"/><line class="cls-2" x1="115.73" y1="13.6" x2="126.96" y2="13.6"/><line class="cls-2" x1="188.51" y1="7.98" x2="188.51" y2="19.22"/><line class="cls-2" x1="182.9" y1="13.6" x2="194.13" y2="13.6"/><line class="cls-2" x1="287.54" y1="7.98" x2="287.54" y2="19.22"/><line class="cls-2" x1="281.92" y1="13.6" x2="293.16" y2="13.6"/></g></g></svg>