<svg xmlns="http://www.w3.org/2000/svg" viewBox="0 0 35.58 34.84"><defs><style>.cls-1{fill:none;}.cls-1,.cls-2{stroke:#231f20;stroke-linecap:round;stroke-linejoin:round;stroke-width:1.42px;}.cls-2{fill:#fff;}</style></defs><g id="Layer_2" data-name="Layer 2"><g id="Layer_2-2" data-name="Layer 2"><path class="cls-1" d="M30.9,17.42A13.11,13.11,0,1,1,17.79,4.31,13.1,13.1,0,0,1,30.9,17.42Z"/><path class="cls-2" d="M13.76,34.13v-6a3.43,3.43,0,0,1,3.43-3.43h1.2a3.43,3.43,0,0,1,3.43,3.43v6Z"/><path class="cls-2" d="M20.27,22.32a2.48,2.48,0,1,1-2.48-2.48A2.48,2.48,0,0,1,20.27,22.32Z"/><path class="cls-2" d="M26.8,15V9.06a3.43,3.43,0,0,1,3.43-3.43h1.21a3.43,3.43,0,0,1,3.43,3.43V15Z"/><path class="cls-2" d="M33.32,3.19A2.49,2.49,0,1,1,30.84.71,2.48,2.48,0,0,1,33.32,3.19Z"/><path class="cls-2" d="M.71,15V9.06A3.42,3.42,0,0,1,4.14,5.63h1.2A3.42,3.42,0,0,1,8.77,9.06V15Z"/><path class="cls-2" d="M7.22,3.19A2.48,2.48,0,1,1,4.74.71,2.48,2.48,0,0,1,7.22,3.19Z"/></g></g></svg>