<svg xmlns="http://www.w3.org/2000/svg" viewBox="0 0 41.7 44.56"><defs><style>.cls-1{fill:#919396;stroke-miterlimit:10;stroke-width:0.71px;}.cls-1,.cls-2{stroke:#231f20;}.cls-2{fill:none;stroke-linecap:round;stroke-linejoin:round;stroke-width:1.42px;}</style></defs><g id="Layer_2" data-name="Layer 2"><g id="Layer_2-2" data-name="Layer 2"><path class="cls-1" d="M10.77,31.57a2.5,2.5,0,0,1-2.71-2.2V18a2.61,2.61,0,0,1,.66-1.74,2.56,2.56,0,0,1,1.89-.73H13.2c.36,0,1.36-.13,1.67-.7l.8-1.18a2.11,2.11,0,0,1,1.67-.79h6.81A2.6,2.6,0,0,1,26.27,14l.6.75a1.67,1.67,0,0,0,1.35.76H31a2.54,2.54,0,0,1,2.59,2.57v11.1a2.39,2.39,0,0,1-2.5,2.35Zm-.15-15.25a1.84,1.84,0,0,0-1.35.49A1.81,1.81,0,0,0,8.83,18V29.34c.09,1.42,1.75,1.46,1.94,1.46v0H31.12a1.62,1.62,0,0,0,1.74-1.59V18.12A1.8,1.8,0,0,0,31,16.32h-2.8a2.48,2.48,0,0,1-2-1.08l-.59-.75a1.83,1.83,0,0,0-1.47-.84H17.34a1.31,1.31,0,0,0-1,.46l-.77,1.14c-.58,1.06-2.26,1.07-2.33,1.07Z"/><path class="cls-1" d="M21,28.91a6,6,0,1,1,6-6.05A6,6,0,0,1,21,28.91Zm0-11.32a5.28,5.28,0,1,0,5.28,5.27A5.28,5.28,0,0,0,21,17.59Z"/><path class="cls-1" d="M30.71,18.57H29.07a.38.38,0,1,1,0-.76h1.64a.38.38,0,0,1,0,.76Z"/><path class="cls-2" d="M31.1,5.28h6.39A3.5,3.5,0,0,1,41,8.77V35.68a3.5,3.5,0,0,1-3.5,3.5H14.65l4.67,4.67"/><path class="cls-2" d="M22.53.71,27.1,5.28H4.2A3.49,3.49,0,0,0,.71,8.77V35.68a3.5,3.5,0,0,0,3.49,3.5h6.68"/><line class="cls-2" x1="27.1" y1="5.28" x2="22.52" y2="9.86"/><line class="cls-2" x1="19.33" y1="34.53" x2="14.75" y2="39.11"/></g></g></svg>