<svg xmlns="http://www.w3.org/2000/svg" viewBox="0 0 40.04 29.26"><defs><style>.cls-1{fill:none;stroke:#9fa1a4;stroke-linecap:round;stroke-linejoin:round;stroke-width:1.2px;}</style></defs><g id="Layer_2" data-name="Layer 2"><g id="Layer_2-2" data-name="Layer 2"><path class="cls-1" d="M4,4.78H8.05s2.37,0,3.14-1.42l1.22-1.79a2.7,2.7,0,0,1,2.25-1H25.19A3.42,3.42,0,0,1,28,2.15l1,1.21a3.24,3.24,0,0,0,2.69,1.42H36s3.46.09,3.47,3.42V25.58a3.19,3.19,0,0,1-3.34,3.08H4.26S.8,28.72.6,25.77V8A3.15,3.15,0,0,1,4,4.78Z"/><circle class="cls-1" cx="20.31" cy="15.63" r="8.86" transform="translate(-4.43 8.96) rotate(-22.5)"/><line class="cls-1" x1="32.89" y1="8.31" x2="35.46" y2="8.31"/></g></g></svg>