<svg xmlns="http://www.w3.org/2000/svg" viewBox="0 0 50.16 29.19"><defs><style>.cls-1{fill:none;stroke:#231f20;stroke-linecap:round;stroke-linejoin:round;stroke-width:1.2px;}</style></defs><g id="Layer_2" data-name="Layer 2"><g id="Layer_2-2" data-name="Layer 2"><rect class="cls-1" x="0.6" y="0.64" width="30.38" height="20.22" rx="2.24"/><line class="cls-1" x1="10.84" y1="23.32" x2="20.82" y2="23.32"/><polygon class="cls-1" points="3.65 25.74 28.2 25.74 30.99 28.59 0.67 28.59 3.65 25.74"/><path class="cls-1" d="M35.8.6h13a.79.79,0,0,1,.79.79V27.8a.79.79,0,0,1-.79.79h-13a.8.8,0,0,1-.8-.8V1.39A.79.79,0,0,1,35.8.6Z"/><line class="cls-1" x1="35.38" y1="7.22" x2="49.56" y2="7.22"/><line class="cls-1" x1="35.38" y1="12.64" x2="49.56" y2="12.64"/><line class="cls-1" x1="35.38" y1="18.05" x2="49.56" y2="18.05"/></g></g></svg>