<svg xmlns="http://www.w3.org/2000/svg" viewBox="0 0 50.83 34.6"><defs><style>.cls-1{fill:none;stroke:#231f20;stroke-linecap:round;stroke-linejoin:round;stroke-width:1.42px;}</style></defs><g id="Layer_2" data-name="Layer 2"><g id="Layer_2-2" data-name="Layer 2"><polygon class="cls-1" points="18.95 8.99 33.86 17.6 18.95 26.21 18.95 8.99"/><path class="cls-1" d="M.71,19.65H8.85v3.66A10.58,10.58,0,0,0,19.43,33.89H39.75V27.51h8.61a1.76,1.76,0,0,0,1.76-1.76V24.58a1.76,1.76,0,0,0-1.76-1.76H39.75v-11h8.61A1.76,1.76,0,0,0,50.12,10V8.85a1.76,1.76,0,0,0-1.76-1.76H39.75V.71H19.43A10.58,10.58,0,0,0,8.85,11.29V15H.71"/></g></g></svg>