<svg xmlns="http://www.w3.org/2000/svg" viewBox="0 0 36.31 34.78"><defs><style>.cls-1{fill:#fff;stroke:#231f20;stroke-linecap:round;stroke-linejoin:round;stroke-width:1.42px;}</style></defs><g id="Layer_2" data-name="Layer 2"><g id="Layer_2-2" data-name="Layer 2"><path class="cls-1" d="M27.9.71H2.21a1.5,1.5,0,0,0-1.5,1.5V17.27a1.5,1.5,0,0,0,1.5,1.5H4.6v8.77l6.81-8.77H27.9a1.5,1.5,0,0,0,1.5-1.5V2.21A1.5,1.5,0,0,0,27.9.71Z"/><path class="cls-1" d="M15.8,14.52H34.5a1.1,1.1,0,0,1,1.1,1.1v11a1.09,1.09,0,0,1-1.1,1.09H32.76v6.39l-4.95-6.39h-12a1.09,1.09,0,0,1-1.1-1.09v-11A1.1,1.1,0,0,1,15.8,14.52Z"/></g></g></svg>