<svg xmlns="http://www.w3.org/2000/svg" viewBox="0 0 14.36 34.81"><defs><style>.cls-1,.cls-2{fill:#231f20;}.cls-1{stroke:#231f20;stroke-miterlimit:10;stroke-width:0.35px;}</style></defs><g id="Layer_2" data-name="Layer 2"><g id="Layer_2-2" data-name="Layer 2"><path class="cls-1" d="M7.18,26.87a4.14,4.14,0,0,1-4.12-4.13v-8.4a4.13,4.13,0,1,1,8.25,0v8.4A4.14,4.14,0,0,1,7.18,26.87Zm0-15.71A3.18,3.18,0,0,0,4,14.34v8.4a3.18,3.18,0,0,0,6.35,0v-8.4A3.19,3.19,0,0,0,7.18,11.16Z"/><path class="cls-1" d="M7.18,30.38a7,7,0,0,1-7-7V20.16a.47.47,0,0,1,.47-.47.47.47,0,0,1,.48.47v3.22a6.06,6.06,0,0,0,12.11,0V20.24a.47.47,0,0,1,.47-.48.48.48,0,0,1,.48.48v3.14A7,7,0,0,1,7.18,30.38Z"/><path class="cls-1" d="M7.18,34.64a.48.48,0,0,1-.47-.48V29.91a.48.48,0,0,1,.47-.48.49.49,0,0,1,.48.48v4.25A.49.49,0,0,1,7.18,34.64Z"/><path class="cls-2" d="M11.42,4.24A4.24,4.24,0,1,1,7.18,0,4.23,4.23,0,0,1,11.42,4.24Z"/></g></g></svg>