<svg xmlns="http://www.w3.org/2000/svg" viewBox="0 0 37.66 34.96"><defs><style>.cls-1{fill:#fff;stroke:#231f20;stroke-linecap:round;stroke-linejoin:round;stroke-width:1.42px;}</style></defs><g id="Layer_2" data-name="Layer 2"><g id="Layer_2-2" data-name="Layer 2"><rect class="cls-1" x="0.71" y="0.71" width="36.24" height="22.09" rx="1.45"/><path class="cls-1" d="M10.11,25.07V19.36a3.29,3.29,0,0,1,3.29-3.29h1.16a3.3,3.3,0,0,1,3.29,3.29v5.71Z"/><path class="cls-1" d="M16.36,13.74A2.38,2.38,0,1,1,14,11.36,2.38,2.38,0,0,1,16.36,13.74Z"/><path class="cls-1" d="M5.21,34.25V28.54A3.29,3.29,0,0,1,8.5,25.25H9.66A3.29,3.29,0,0,1,13,28.54v5.71Z"/><path class="cls-1" d="M11.46,22.92a2.38,2.38,0,1,1-2.38-2.38A2.39,2.39,0,0,1,11.46,22.92Z"/><path class="cls-1" d="M15.56,34.25V28.54a3.29,3.29,0,0,1,3.29-3.29H20a3.29,3.29,0,0,1,3.29,3.29v5.71Z"/><path class="cls-1" d="M21.81,22.92a2.38,2.38,0,1,1-2.38-2.38A2.38,2.38,0,0,1,21.81,22.92Z"/><path class="cls-1" d="M25.91,34.25V28.54a3.29,3.29,0,0,1,3.29-3.29h1.16a3.29,3.29,0,0,1,3.29,3.29v5.71Z"/><path class="cls-1" d="M32.17,22.92a2.39,2.39,0,1,1-2.39-2.38A2.39,2.39,0,0,1,32.17,22.92Z"/></g></g></svg>